<svg xmlns="http://www.w3.org/2000/svg" xmlns:xlink="http://www.w3.org/1999/xlink" width="1920" zoomAndPan="magnify" viewBox="0 0 1440 809.999993" height="1080" preserveAspectRatio="xMidYMid meet" version="1.0"><defs><clipPath id="ab62d219d1"><path d="M 0 329.398438 L 1440 329.398438 L 1440 810 L 0 810 Z M 0 329.398438 " clip-rule="nonzero"/></clipPath></defs><g clip-path="url(#ab62d219d1)"><path fill="#231f20" d="M 1396.023438 800.945312 L 1396.023438 640.023438 L 1364.046875 598.957031 L 1299.5 599.777344 L 1269.152344 640.851562 L 1269.152344 800.945312 L 1255.476562 800.945312 L 1255.476562 739.566406 L 1220.53125 739.566406 L 1220.53125 715.25 L 1164.308594 715.25 L 1164.308594 800.945312 L 1154.847656 800.945312 L 1154.847656 586.25 L 1145.734375 586.25 L 1145.734375 654.636719 L 1073.832031 726.558594 L 1073.832031 800.945312 L 1061.320312 800.945312 L 1061.320312 445.625 L 1026.035156 400.027344 L 1026.035156 329.332031 L 1016.917969 329.332031 L 1016.917969 400.042969 L 982.113281 445.640625 L 982.113281 800.945312 L 959.578125 800.945312 L 959.578125 685.730469 L 917.234375 643.378906 L 917.234375 584.808594 L 870.0625 537.613281 L 870.0625 433.507812 L 860.945312 433.507812 L 860.945312 800.945312 L 836.792969 800.945312 L 836.792969 631.636719 L 805.722656 631.636719 L 805.722656 583.015625 L 774.574219 583.015625 L 774.574219 556.417969 L 750.265625 556.417969 L 750.265625 583.777344 L 716.078125 583.777344 L 716.078125 631.636719 L 687.230469 631.636719 L 687.230469 800.945312 L 651.199219 800.945312 L 651.199219 554.535156 L 505.730469 554.535156 L 505.730469 800.945312 L 479.917969 800.945312 L 479.917969 665.382812 L 444.234375 635.570312 L 444.234375 555.972656 L 435.117188 555.972656 L 435.117188 635.601562 L 400.183594 665.414062 L 400.183594 800.945312 L 360.625 800.945312 L 360.625 588.132812 L 253.78125 528.316406 L 253.78125 433.507812 L 244.664062 433.507812 L 244.664062 800.945312 L 232.101562 800.945312 L 232.101562 730.511719 L 176.21875 730.511719 L 176.21875 638.753906 L 148.28125 638.753906 L 148.28125 511.015625 L 139.164062 511.015625 L 139.164062 599.035156 L 115.691406 622.511719 L 115.691406 778.882812 L 100.78125 778.882812 L 100.78125 696.855469 L 70.050781 666.105469 L 70.050781 629.5625 L 60.933594 629.5625 L 60.933594 800.945312 L 0.671875 800.945312 L 0.671875 810.066406 L 70.050781 810.066406 L 70.050781 679.007812 L 91.664062 700.632812 L 91.664062 788.003906 L 124.808594 788.003906 L 124.808594 626.285156 L 139.164062 611.929688 L 139.164062 647.875 L 167.101562 647.875 L 167.101562 739.632812 L 222.984375 739.632812 L 222.984375 810.066406 L 253.78125 810.066406 L 253.78125 538.765625 L 351.507812 593.484375 L 351.507812 810.066406 L 409.300781 810.066406 L 409.300781 669.621094 L 439.707031 643.671875 L 470.800781 669.652344 L 470.800781 810.066406 L 514.847656 810.066406 L 514.847656 563.65625 L 642.082031 563.65625 L 642.082031 810.066406 L 696.347656 810.066406 L 696.347656 640.753906 L 725.191406 640.753906 L 725.191406 592.894531 L 759.378906 592.894531 L 759.378906 565.535156 L 765.457031 565.535156 L 765.457031 592.136719 L 796.605469 592.136719 L 796.605469 640.753906 L 827.679688 640.753906 L 827.679688 810.066406 L 870.0625 810.066406 L 870.0625 550.511719 L 908.121094 588.585938 L 908.121094 647.15625 L 950.460938 689.511719 L 950.460938 810.066406 L 991.230469 810.066406 L 991.230469 448.730469 L 1021.507812 409.070312 L 1052.203125 448.742188 L 1052.203125 810.066406 L 1082.949219 810.066406 L 1082.949219 730.335938 L 1145.734375 667.53125 L 1145.734375 810.066406 L 1173.425781 810.066406 L 1173.425781 724.367188 L 1211.414062 724.367188 L 1211.414062 748.6875 L 1246.359375 748.6875 L 1246.359375 810.066406 L 1278.269531 810.066406 L 1278.269531 643.855469 L 1304.140625 608.835938 L 1359.636719 608.136719 L 1386.90625 643.160156 L 1386.90625 810.066406 L 1439.328125 810.066406 L 1439.328125 800.945312 L 1396.023438 800.945312 " fill-opacity="1" fill-rule="nonzero"/></g></svg>