<svg class="svg-icon" style="width: 1em; height: 1em;vertical-align: middle;fill: currentColor;overflow: hidden;" viewBox="0 0 1024 1024" version="1.1" xmlns="http://www.w3.org/2000/svg"><path d="M796.990776 64.098877c-44.923142 0-85.650729 18.21485-115.121947 47.686069l-549.72009 549.72009-68.049862 298.396087 298.396087-68.049862 549.72009-549.72009c29.471219-29.471219 47.686069-70.198805 47.686069-115.121947C959.798792 137.060609 886.939391 64.098877 796.990776 64.098877M328.72586 853.78427l-142.546553 33.359782 0-49.425689-49.425689 0 33.359782-142.546553 158.612461 0L328.72586 853.78427 328.72586 853.78427zM369.453447 827.178309l0-152.370293c0-11.256368-9.107425-20.363793-20.363793-20.363793l-152.370293 0 438.486706-438.384375 172.631756 172.734086L369.453447 827.178309zM883.357819 313.376267l-46.662763 46.662763-172.734086-172.734086 46.662763-46.662763c0 0 33.155121-35.815717 86.367043-35.815717 67.435878 0 122.18276 54.644551 122.18276 122.18276C919.173536 260.675998 905.461233 291.272853 883.357819 313.376267"  /></svg>